<?xml version="1.0" encoding="iso-8859-1"?>
<!-- Generator: Adobe Illustrator 19.1.0, SVG Export Plug-In . SVG Version: 6.00 Build 0)  -->
<svg version="1.1" id="Capa_1" xmlns="http://www.w3.org/2000/svg" xmlns:xlink="http://www.w3.org/1999/xlink" x="0px" y="0px"
	 viewBox="0 0 453.5 453.5" style="enable-background:new 0 0 453.5 453.5;" xml:space="preserve">
<g>
	<g>
		<path d="M433.5,205.86c11.03,0,20,8.97,20,20s-8.97,20-20,20c-8.38,0-15.56-5.18-18.53-12.5H265.85v17.5h25.65
			c1.99,0,3.89,0.79,5.3,2.19l16.26,16.26c2.3-0.93,4.81-1.45,7.44-1.45c11.03,0,20,8.97,20,20c0,11.03-8.97,20-20,20
			s-20-8.97-20-20c0-2.9,0.63-5.65,1.75-8.15l-13.86-13.85h-22.54v22.53l13.86,13.86c2.49-1.11,5.24-1.75,8.14-1.75
			c11.03,0,20,8.97,20,20s-8.97,20-20,20c-11.02,0-20-8.97-20-20c0-2.63,0.53-5.14,1.45-7.44l-16.25-16.26
			c-1.41-1.4-2.2-3.31-2.2-5.3v-25.64h-17.5v149.11c7.32,2.98,12.5,10.16,12.5,18.53c0,11.03-8.97,20-20,20c-11.02,0-20-8.97-20-20
			c0-8.37,5.18-15.55,12.5-18.53V265.86h-17.5v65.85c0,1.99-0.79,3.9-2.19,5.31l-15.17,15.16c1.37,2.7,2.15,5.74,2.15,8.96
			c0,11.03-8.97,20-20,20s-20-8.97-20-20c0-11.03,8.97-20,20-20c2.3,0,4.5,0.41,6.55,1.13l13.66-13.66v-62.75H165.1l-13.85,13.85
			c1.11,2.5,1.75,5.25,1.75,8.15c0,11.03-8.97,20-20,20s-20-8.97-20-20c0-11.03,8.97-20,20-20c2.63,0,5.14,0.52,7.44,1.45
			l16.25-16.26c1.41-1.4,3.32-2.19,5.31-2.19h23.85v-17.5H38.52c-2.97,7.32-10.15,12.5-18.52,12.5c-11.03,0-20-8.97-20-20
			s8.97-20,20-20c8.37,0,15.55,5.18,18.52,12.5h147.33v-17.5h-64.07c-1.99,0-3.89-0.79-5.3-2.2l-15.16-15.16
			c-2.7,1.36-5.74,2.14-8.96,2.14c-11.03,0-20-8.97-20-20c0-11.02,8.97-20,20-20c11.02,0,20,8.98,20,20c0,2.3-0.41,4.5-1.13,6.56
			l13.66,13.66h60.96V124.9l-13.66-13.66c-2.05,0.71-4.25,1.12-6.55,1.12c-11.03,0-20-8.97-20-20s8.97-20,20-20s20,8.97,20,20
			c0,3.23-0.78,6.26-2.15,8.96l15.17,15.17c1.4,1.4,2.19,3.31,2.19,5.3v64.07h17.5V38.53c-7.32-2.98-12.5-10.15-12.5-18.53
			c0-11.03,8.98-20,20-20c11.03,0,20,8.97,20,20c0,8.38-5.18,15.55-12.5,18.53v147.33h17.5V162c0-1.99,0.79-3.9,2.2-5.3l16.25-16.26
			c-0.92-2.3-1.45-4.81-1.45-7.44c0-11.03,8.98-20,20-20c11.03,0,20,8.97,20,20s-8.97,20-20,20c-2.9,0-5.65-0.63-8.14-1.75
			l-13.86,13.86v20.75h62.75l13.66-13.66c-0.71-2.06-1.12-4.26-1.12-6.56c0-11.02,8.97-20,20-20c11.03,0,20,8.98,20,20
			c0,11.03-8.97,20-20,20c-3.23,0-6.27-0.78-8.97-2.14l-15.16,15.16c-1.4,1.41-3.31,2.2-5.3,2.2h-65.86v17.5h149.12
			C417.94,211.04,425.12,205.86,433.5,205.86z M438.5,225.86c0-2.76-2.25-5-5-5c-2.76,0-5,2.24-5,5c0,2.75,2.24,5,5,5
			C436.25,230.86,438.5,228.61,438.5,225.86z M366.14,165.64c0-2.75-2.25-5-5-5c-2.76,0-5,2.25-5,5c0,2.76,2.24,5,5,5
			C363.89,170.64,366.14,168.4,366.14,165.64z M325.5,287.86c0-2.76-2.25-5-5-5c-2.76,0-5,2.24-5,5c0,2.75,2.24,5,5,5
			C323.25,292.86,325.5,290.61,325.5,287.86z M292.85,133c0-2.76-2.24-5-5-5c-2.75,0-5,2.24-5,5s2.25,5,5,5
			C290.61,138,292.85,135.76,292.85,133z M292.85,320.5c0-2.76-2.24-5-5-5c-2.75,0-5,2.24-5,5s2.25,5,5,5
			C290.61,325.5,292.85,323.26,292.85,320.5z M250.85,250.86v-17.5h-17.5v17.5H250.85z M250.85,218.36v-17.5h-17.5v17.5H250.85z
			 M230.85,20c0-2.76-2.24-5-5-5c-2.75,0-5,2.24-5,5s2.25,5,5,5C228.61,25,230.85,22.76,230.85,20z M230.85,433.5c0-2.76-2.24-5-5-5
			c-2.75,0-5,2.24-5,5s2.25,5,5,5C228.61,438.5,230.85,436.26,230.85,433.5z M218.35,250.86v-17.5h-17.5v17.5H218.35z
			 M218.35,218.36v-17.5h-17.5v17.5H218.35z M170.64,92.36c0-2.76-2.24-5-5-5s-5,2.24-5,5s2.24,5,5,5S170.64,95.12,170.64,92.36z
			 M170.64,361.14c0-2.76-2.24-5-5-5s-5,2.24-5,5c0,2.76,2.24,5,5,5S170.64,363.9,170.64,361.14z M138,287.86c0-2.76-2.25-5-5-5
			c-2.76,0-5,2.24-5,5c0,2.75,2.24,5,5,5C135.75,292.86,138,290.61,138,287.86z M97.36,165.64c0-2.75-2.25-5-5-5c-2.76,0-5,2.25-5,5
			c0,2.76,2.24,5,5,5C95.11,170.64,97.36,168.4,97.36,165.64z M25,225.86c0-2.76-2.25-5-5-5c-2.76,0-5,2.24-5,5c0,2.75,2.24,5,5,5
			C22.75,230.86,25,228.61,25,225.86z"/>
		<path style="fill:#3DD0F2;" d="M433.5,220.86c2.75,0,5,2.24,5,5c0,2.75-2.25,5-5,5c-2.76,0-5-2.25-5-5
			C428.5,223.1,430.74,220.86,433.5,220.86z"/>
		<path style="fill:#3DD0F2;" d="M361.14,160.64c2.75,0,5,2.25,5,5c0,2.76-2.25,5-5,5c-2.76,0-5-2.24-5-5
			C356.14,162.89,358.38,160.64,361.14,160.64z"/>
		<path style="fill:#F48C6C;" d="M320.5,282.86c2.75,0,5,2.24,5,5c0,2.75-2.25,5-5,5c-2.76,0-5-2.25-5-5
			C315.5,285.1,317.74,282.86,320.5,282.86z"/>
		<path style="fill:#F48C6C;" d="M287.85,128c2.76,0,5,2.24,5,5s-2.24,5-5,5c-2.75,0-5-2.24-5-5S285.1,128,287.85,128z"/>
		<path style="fill:#3DD0F2;" d="M287.85,315.5c2.76,0,5,2.24,5,5s-2.24,5-5,5c-2.75,0-5-2.24-5-5S285.1,315.5,287.85,315.5z"/>
		<path style="fill:#3DD0F2;" d="M225.85,428.5c2.76,0,5,2.24,5,5s-2.24,5-5,5c-2.75,0-5-2.24-5-5S223.1,428.5,225.85,428.5z"/>
		<circle style="fill:#F48C6C;" cx="165.64" cy="92.36" r="5"/>
		<circle style="fill:#F48C6C;" cx="165.64" cy="361.14" r="5"/>
		<path style="fill:#3DD0F2;" d="M133,282.86c2.75,0,5,2.24,5,5c0,2.75-2.25,5-5,5c-2.76,0-5-2.25-5-5
			C128,285.1,130.24,282.86,133,282.86z"/>
		<path style="fill:#3DD0F2;" d="M92.36,160.64c2.75,0,5,2.25,5,5c0,2.76-2.25,5-5,5c-2.76,0-5-2.24-5-5
			C87.36,162.89,89.6,160.64,92.36,160.64z"/>
		<path style="fill:#F48C6C;" d="M20,220.86c2.75,0,5,2.24,5,5c0,2.75-2.25,5-5,5c-2.76,0-5-2.25-5-5
			C15,223.1,17.24,220.86,20,220.86z"/>
	</g>
	<path style="fill:#3DD0F2;" d="M225.85,15c2.76,0,5,2.24,5,5s-2.24,5-5,5c-2.75,0-5-2.24-5-5S223.1,15,225.85,15z"/>
</g>
<g>
</g>
<g>
</g>
<g>
</g>
<g>
</g>
<g>
</g>
<g>
</g>
<g>
</g>
<g>
</g>
<g>
</g>
<g>
</g>
<g>
</g>
<g>
</g>
<g>
</g>
<g>
</g>
<g>
</g>
</svg>
